<?xml version="1.0" encoding="utf-8"?>
<!-- Svg Vector Icons : http://www.onlinewebfonts.com/icon -->
<!DOCTYPE svg PUBLIC "-//W3C//DTD SVG 1.1//EN" "http://www.w3.org/Graphics/SVG/1.1/DTD/svg11.dtd">
<svg version="1.1" xmlns="http://www.w3.org/2000/svg" xmlns:xlink="http://www.w3.org/1999/xlink" x="0px" y="0px" viewBox="0 0 1000 1000" enable-background="new 0 0 1000 1000" xml:space="preserve">
<metadata> Svg Vector Icons : http://www.onlinewebfonts.com/icon </metadata>
<g><path d="M976.9,579.3c-9.2-20.7-21.5-39.1-36.8-55.2c-15.3-16.1-33.7-28.3-55.2-36.8c-20.7-9.2-42.9-13.8-65.9-13.8c-21.5,0-42.1,3.8-61.3,11.5c-19.2,7.7-36,18.4-50.6,30.6V366.3c0-19.9-6.9-37.5-21.5-52.1C672,299.6,654.3,292,634.4,292H527.9c26-30.6,39.1-67.4,39.1-108.8c0-24.5-4.6-47.5-13.8-69c-9.2-21.5-21.5-39.8-37.5-55.9c-15.3-16.1-34.5-28.3-55.2-37.5C439,11.6,416.8,7,393.1,7s-46.7,4.6-67.4,13.8C304.2,30,285.8,43,270.5,58.3c-15.3,16.1-28.3,34.5-37.5,55.9c-9.2,21.5-13.8,44.4-13.8,69c0,20.7,3.8,40.6,10.7,59c6.9,18.4,16.9,35.2,28.3,49.8H83.6c-19.9,0-37.5,7.7-52.1,22.2C16.9,328.8,10,346.4,10,366.3v118c0.8,16.1,3.1,26.8,7.7,33.7c4.6,6.9,10,10.7,16.9,11.5c6.9,0.8,14.6-0.8,23-4.6c8.4-3.8,17.6-7.7,26-12.3c3.1-1.5,6.9-3.1,11.5-4.6c18.4-8.4,37.5-12.3,56.7-12.3c19.9,0,39.1,3.8,56.7,11.5c17.6,7.7,32.9,17.6,46,30.6c13,13,23,28.3,30.6,46c7.7,17.6,11.5,36.8,11.5,56.7c0,19.9-3.8,39.1-11.5,55.9c-7.7,17.6-17.6,32.2-30.6,45.2c-13,13-28.3,23.8-46,30.6c-17.6,7.7-36,11.5-56.7,11.5c-19.9,0-39.8-4.6-59-14.6c-4.6-0.8-11.5-3.8-19.9-9.2c-18.4-11.5-32.9-13-42.1-5.4c-10,7.7-16.1,19.2-19.9,34.5v124.9c0,19.9,7.7,37.5,21.5,51.3c14.6,14.6,32.2,21.5,52.1,21.5h449l-91.2-91.2l0,0l-75.8-75.8l75.8-75.9l0,0l140.2-140.2l75.8,75.9L518,819.9l140.2,140.2l-27.6,27.6h4.6c19.9,0,37.5-6.9,51.3-21.5c13.8-14.6,21.5-31.4,21.5-51.3V774.7c14.6,13,32.2,23,50.6,30.6c19.2,7.7,39.1,11.5,61.3,11.5c6.1,0,12.3,0,17.6-0.8L701.1,679.7l75.8-75.9L917.1,744l0,0l22.2,22.2l0,0c15.3-16.1,27.6-33.7,36.8-54.4c9.2-20.7,13.8-42.9,13.8-66.7C990.7,623,986.1,600.8,976.9,579.3z M617.6,680.4l-32.2-32.2L413,820.6l32.2,32.2L585.4,993l32.2-32.2L477.4,820.6L617.6,680.4z M740.9,680.4l140.2,140.2L740.9,960.8l32.2,32.2l172.4-172.4L773.1,648.3L740.9,680.4z"/></g>
</svg>