<?xml version="1.0" encoding="utf-8"?>
<!-- Svg Vector Icons : http://www.onlinewebfonts.com/icon -->
<!DOCTYPE svg PUBLIC "-//W3C//DTD SVG 1.1//EN" "http://www.w3.org/Graphics/SVG/1.1/DTD/svg11.dtd">
<svg version="1.1" xmlns="http://www.w3.org/2000/svg" xmlns:xlink="http://www.w3.org/1999/xlink" x="0px" y="0px" viewBox="0 0 1000 1000" enable-background="new 0 0 1000 1000" xml:space="preserve">
<metadata> Svg Vector Icons : http://www.onlinewebfonts.com/icon </metadata>
<g><path d="M935.6,173.3H64.4c-29.9,0-54.4-24.5-54.4-54.4c0-29.9,24.5-54.4,54.4-54.4h871.1c29.9,0,54.4,24.5,54.4,54.4C990,148.8,965.5,173.3,935.6,173.3"/><path d="M935.6,554.4H64.4C34.5,554.4,10,529.9,10,500s24.5-54.4,54.4-54.4h871.1c29.9,0,54.4,24.5,54.4,54.4S965.5,554.4,935.6,554.4"/><path d="M935.6,935.6H64.4c-29.9,0-54.4-24.5-54.4-54.4c0-29.9,24.5-54.4,54.4-54.4h871.1c29.9,0,54.4,24.5,54.4,54.4C990,911.1,965.5,935.6,935.6,935.6"/></g>
</svg>