<?xml version="1.0" encoding="utf-8"?>
<!-- Svg Vector Icons : http://www.onlinewebfonts.com/icon -->
<!DOCTYPE svg PUBLIC "-//W3C//DTD SVG 1.1//EN" "http://www.w3.org/Graphics/SVG/1.1/DTD/svg11.dtd">
<svg version="1.1" xmlns="http://www.w3.org/2000/svg" xmlns:xlink="http://www.w3.org/1999/xlink" x="0px" y="0px" viewBox="0 0 1000 1000" enable-background="new 0 0 1000 1000" xml:space="preserve">
<metadata> Svg Vector Icons : http://www.onlinewebfonts.com/icon </metadata>
<g><path d="M485.1,442.6l-99.7,165.3H656c-19.7-36.9-45.7-89.7-80.6-165.3L485.1,442.6L485.1,442.6z M495.9,346.3c6.2-10.3,2.5-23.5-8.4-29.5l-59-32.2c-10.8-6-24.7-2.4-30.9,7.9l-90.5,150.1l-99.7,165.3l-83.2,138c-6.3,10.3-2.4,23.5,8.4,29.4l59,32.3c10.8,5.9,24.7,2.3,31-7.9l115.7-191.8l74.7-124L495.9,346.3z M172.3,832.4l-59-32.2c-10.8-5.9-20.8-1.1-22.2,10.7l-10.2,84.6c-1.4,11.8,5.9,16,16.1,9.3l76.2-49.5C183.6,848.7,183.1,838.3,172.3,832.4z M259.8,442.6H30.5c-11.3,0-20.5,8.7-20.5,19.5v126.3c0,10.8,9.2,19.5,20.5,19.5h129.6L259.8,442.6z M969.5,442.6H770.2c23.4,41.8,45.2,81.2,60.5,109c10.6,19.3,19,34.5,21.9,39.6c3.1,5.4,5.3,11,6.8,16.7h110c11.3,0,20.5-8.7,20.5-19.5V462.2C990,451.4,980.8,442.6,969.5,442.6z M816.7,610.1c-0.3-0.5-0.8-1.3-1.2-2.1c-5.5-9.6-19.2-34.8-37.3-67.4c-0.2-0.4-0.4-0.8-0.7-1.3c-1.4-2.5-2.8-5-4.2-7.6c-1-1.9-2.1-3.7-3.1-5.6c-0.9-1.6-1.8-3.3-2.7-4.9c-1.6-2.9-3.2-5.8-4.9-8.7c-0.5-0.9-1-1.8-1.5-2.8c-1.8-3.3-3.7-6.7-5.6-10.1c-0.5-1-1.1-1.9-1.6-2.9c-41.6-74.8-93.8-167-126-215.4C571.5,196.3,496.2,54.8,475.2,64.9c-29.5,14,61.7,193.6,91.9,261.1c30.2,67.5,147.9,326.1,171.5,337.4c23.6,11.2,32.8,5,48.5-1.2C802.9,655.9,831.1,635.1,816.7,610.1z M875.3,817.7c-8.8,8.1-29.9,25.6-4.4,59.7c25.4,34.1,82.1,35.6,89.6,58.3C960.5,935.7,978.3,762.4,875.3,817.7z M884,743.3L855.9,692c-6.4-11.6-21.3-16.4-33.3-10.6L788.7,698c-11.9,5.9-15.7,19.7-8.3,30.8l35.5,53.5c7.3,11,22.8,14.6,34.3,8l24.2-13.8C886.1,769.9,890.3,755,884,743.3z"/></g>
</svg>